<mxfile host="app.diagrams.net" modified="2023-05-30T01:18:13.142Z" agent="Mozilla/5.0 (Windows NT 10.0; Win64; x64) AppleWebKit/537.36 (KHTML, like Gecko) Chrome/113.0.0.0 Safari/537.36" etag="cu-kT8NNKCcXCEev_lr8" version="21.3.5" type="github">
  <diagram name="Page-1" id="DYB4-a2Kk9BhxteHjXfk">
    <mxGraphModel dx="2173" dy="2297" grid="1" gridSize="10" guides="1" tooltips="1" connect="1" arrows="1" fold="1" page="1" pageScale="1" pageWidth="850" pageHeight="1100" math="0" shadow="0">
      <root>
        <mxCell id="0" />
        <mxCell id="1" parent="0" />
        <mxCell id="qtXVRn9v_pat29216-Ta-1" value="" style="rounded=0;whiteSpace=wrap;html=1;" vertex="1" parent="1">
          <mxGeometry x="-285" y="3230" width="1185" height="910" as="geometry" />
        </mxCell>
        <mxCell id="qtXVRn9v_pat29216-Ta-2" value="" style="rounded=0;whiteSpace=wrap;html=1;" vertex="1" parent="1">
          <mxGeometry x="-270" y="2220" width="1190" height="590" as="geometry" />
        </mxCell>
        <mxCell id="qtXVRn9v_pat29216-Ta-3" value="" style="rounded=0;whiteSpace=wrap;html=1;" vertex="1" parent="1">
          <mxGeometry x="-300" y="-320" width="1860" height="1730" as="geometry" />
        </mxCell>
        <mxCell id="qtXVRn9v_pat29216-Ta-4" value="Gestion des suivis médicaux" style="shape=rect;html=1;verticalAlign=top;fontStyle=1;whiteSpace=wrap;align=center;" vertex="1" parent="1">
          <mxGeometry x="-160" y="3280" width="1010" height="810" as="geometry" />
        </mxCell>
        <mxCell id="qtXVRn9v_pat29216-Ta-5" value="&lt;font style=&quot;font-size: 15px;&quot; face=&quot;Helvetica&quot;&gt;Ajouter un nouveau dossier&lt;/font&gt;" style="shape=rect;html=1;verticalAlign=top;fontStyle=1;whiteSpace=wrap;align=center;fontFamily=Comic Sans MS;" vertex="1" parent="1">
          <mxGeometry x="70" y="-190" width="1350" height="1450" as="geometry" />
        </mxCell>
        <mxCell id="qtXVRn9v_pat29216-Ta-6" value="Utilisateur" style="shape=umlActor;html=1;verticalLabelPosition=bottom;verticalAlign=top;align=center;" vertex="1" parent="1">
          <mxGeometry x="-185" y="500" width="110" height="170" as="geometry" />
        </mxCell>
        <mxCell id="qtXVRn9v_pat29216-Ta-7" style="edgeStyle=orthogonalEdgeStyle;rounded=0;orthogonalLoop=1;jettySize=auto;html=1;exitX=0.5;exitY=1;exitDx=0;exitDy=0;" edge="1" parent="1" source="qtXVRn9v_pat29216-Ta-5" target="qtXVRn9v_pat29216-Ta-5">
          <mxGeometry relative="1" as="geometry" />
        </mxCell>
        <mxCell id="qtXVRn9v_pat29216-Ta-8" value="&lt;pre&gt;&lt;code class=&quot;!whitespace-pre hljs language-lua&quot;&gt;Saisir les informations&lt;/code&gt;&lt;/pre&gt;&lt;pre&gt;&lt;code class=&quot;!whitespace-pre hljs language-lua&quot;&gt; sur &lt;/code&gt;le nouveau né &lt;/pre&gt;" style="shape=ellipse;html=1;strokeWidth=3;fontStyle=1;whiteSpace=wrap;align=center;perimeter=ellipsePerimeter;" vertex="1" parent="1">
          <mxGeometry x="320" y="160" width="210" height="110" as="geometry" />
        </mxCell>
        <mxCell id="qtXVRn9v_pat29216-Ta-9" value="&lt;pre&gt;&lt;code class=&quot;!whitespace-pre hljs language-lua&quot;&gt;Saisir les informations &lt;/code&gt;&lt;/pre&gt;&lt;pre&gt;&lt;code class=&quot;!whitespace-pre hljs language-lua&quot;&gt;sur la mère&lt;/code&gt;&lt;/pre&gt;" style="shape=ellipse;html=1;strokeWidth=3;fontStyle=1;whiteSpace=wrap;align=center;perimeter=ellipsePerimeter;" vertex="1" parent="1">
          <mxGeometry x="330" y="290" width="190" height="110" as="geometry" />
        </mxCell>
        <mxCell id="qtXVRn9v_pat29216-Ta-10" value="&lt;pre&gt;&lt;code class=&quot;!whitespace-pre hljs language-lua&quot;&gt;Saisir les informations &lt;/code&gt;&lt;/pre&gt;&lt;pre&gt;&lt;code class=&quot;!whitespace-pre hljs language-lua&quot;&gt;sur l&#39;accouchement&lt;/code&gt;&lt;/pre&gt;" style="shape=ellipse;html=1;strokeWidth=3;fontStyle=1;whiteSpace=wrap;align=center;perimeter=ellipsePerimeter;" vertex="1" parent="1">
          <mxGeometry x="330" y="440" width="200" height="90" as="geometry" />
        </mxCell>
        <mxCell id="qtXVRn9v_pat29216-Ta-11" value="&lt;pre&gt;&lt;code class=&quot;!whitespace-pre hljs language-lua&quot;&gt;Saisir les informations &lt;/code&gt;&lt;/pre&gt;&lt;pre&gt;&lt;code class=&quot;!whitespace-pre hljs language-lua&quot;&gt;sur les &lt;/code&gt;personnels médicaux&lt;/pre&gt;" style="shape=ellipse;html=1;strokeWidth=3;fontStyle=1;whiteSpace=wrap;align=center;perimeter=ellipsePerimeter;" vertex="1" parent="1">
          <mxGeometry x="315" y="610" width="220" height="120" as="geometry" />
        </mxCell>
        <mxCell id="qtXVRn9v_pat29216-Ta-12" value="s&#39;authentifier" style="ellipse;whiteSpace=wrap;html=1;" vertex="1" parent="1">
          <mxGeometry x="850" y="350" width="180" height="90" as="geometry" />
        </mxCell>
        <mxCell id="qtXVRn9v_pat29216-Ta-13" value="" style="edgeStyle=none;html=1;endArrow=none;verticalAlign=bottom;rounded=0;exitX=0.5;exitY=0.5;exitDx=0;exitDy=0;exitPerimeter=0;" edge="1" parent="1" source="qtXVRn9v_pat29216-Ta-6" target="qtXVRn9v_pat29216-Ta-8">
          <mxGeometry width="160" relative="1" as="geometry">
            <mxPoint x="390" y="410" as="sourcePoint" />
            <mxPoint x="550" y="410" as="targetPoint" />
          </mxGeometry>
        </mxCell>
        <mxCell id="qtXVRn9v_pat29216-Ta-14" value="" style="edgeStyle=none;html=1;endArrow=none;verticalAlign=bottom;rounded=0;exitX=0.5;exitY=0.5;exitDx=0;exitDy=0;exitPerimeter=0;" edge="1" parent="1" source="qtXVRn9v_pat29216-Ta-6" target="qtXVRn9v_pat29216-Ta-9">
          <mxGeometry width="160" relative="1" as="geometry">
            <mxPoint x="10" y="390" as="sourcePoint" />
            <mxPoint x="550" y="410" as="targetPoint" />
          </mxGeometry>
        </mxCell>
        <mxCell id="qtXVRn9v_pat29216-Ta-15" value="" style="edgeStyle=none;html=1;endArrow=none;verticalAlign=bottom;rounded=0;exitX=0.5;exitY=0.5;exitDx=0;exitDy=0;exitPerimeter=0;" edge="1" parent="1" source="qtXVRn9v_pat29216-Ta-6" target="qtXVRn9v_pat29216-Ta-10">
          <mxGeometry width="160" relative="1" as="geometry">
            <mxPoint x="10" y="390" as="sourcePoint" />
            <mxPoint x="550" y="410" as="targetPoint" />
          </mxGeometry>
        </mxCell>
        <mxCell id="qtXVRn9v_pat29216-Ta-16" value="" style="edgeStyle=none;html=1;endArrow=none;verticalAlign=bottom;rounded=0;entryX=0;entryY=0.5;entryDx=0;entryDy=0;exitX=0.5;exitY=0.5;exitDx=0;exitDy=0;exitPerimeter=0;" edge="1" parent="1" source="qtXVRn9v_pat29216-Ta-6" target="qtXVRn9v_pat29216-Ta-11">
          <mxGeometry width="160" relative="1" as="geometry">
            <mxPoint x="10" y="390" as="sourcePoint" />
            <mxPoint x="550" y="410" as="targetPoint" />
          </mxGeometry>
        </mxCell>
        <mxCell id="qtXVRn9v_pat29216-Ta-17" value="Saisir les informations des résultats de tests effectués sur le bébé" style="shape=ellipse;html=1;strokeWidth=3;fontStyle=1;whiteSpace=wrap;align=center;perimeter=ellipsePerimeter;" vertex="1" parent="1">
          <mxGeometry x="280" y="880" width="206" height="100" as="geometry" />
        </mxCell>
        <mxCell id="qtXVRn9v_pat29216-Ta-18" value="sage-femme" style="shape=umlActor;html=1;verticalLabelPosition=bottom;verticalAlign=top;align=center;" vertex="1" parent="1">
          <mxGeometry x="-180" y="-30" width="100" height="150" as="geometry" />
        </mxCell>
        <mxCell id="qtXVRn9v_pat29216-Ta-19" value="Saisir les informations des résultats de tests effectués sur la mère" style="shape=ellipse;html=1;strokeWidth=3;fontStyle=1;whiteSpace=wrap;align=center;perimeter=ellipsePerimeter;" vertex="1" parent="1">
          <mxGeometry x="324" y="-20" width="196" height="90" as="geometry" />
        </mxCell>
        <mxCell id="qtXVRn9v_pat29216-Ta-20" value="Ajouter une observation sur la mère" style="ellipse;whiteSpace=wrap;html=1;" vertex="1" parent="1">
          <mxGeometry x="355" y="-140" width="140" height="70" as="geometry" />
        </mxCell>
        <mxCell id="qtXVRn9v_pat29216-Ta-21" value="pediatre" style="shape=umlActor;html=1;verticalLabelPosition=bottom;verticalAlign=top;align=center;" vertex="1" parent="1">
          <mxGeometry x="-160" y="1100" width="60" height="120" as="geometry" />
        </mxCell>
        <mxCell id="qtXVRn9v_pat29216-Ta-22" value="Ajouter une observation sur le bébé" style="ellipse;whiteSpace=wrap;html=1;" vertex="1" parent="1">
          <mxGeometry x="325" y="1110" width="140" height="70" as="geometry" />
        </mxCell>
        <mxCell id="qtXVRn9v_pat29216-Ta-23" value="" style="edgeStyle=none;html=1;endArrow=none;verticalAlign=bottom;rounded=0;exitX=0.492;exitY=0.53;exitDx=0;exitDy=0;exitPerimeter=0;" edge="1" parent="1" source="qtXVRn9v_pat29216-Ta-21" target="qtXVRn9v_pat29216-Ta-17">
          <mxGeometry width="160" relative="1" as="geometry">
            <mxPoint x="-120" y="1010" as="sourcePoint" />
            <mxPoint x="40" y="1010" as="targetPoint" />
          </mxGeometry>
        </mxCell>
        <mxCell id="qtXVRn9v_pat29216-Ta-24" value="" style="edgeStyle=none;html=1;endArrow=none;verticalAlign=bottom;rounded=0;exitX=0.488;exitY=0.616;exitDx=0;exitDy=0;exitPerimeter=0;" edge="1" parent="1" source="qtXVRn9v_pat29216-Ta-21" target="qtXVRn9v_pat29216-Ta-22">
          <mxGeometry width="160" relative="1" as="geometry">
            <mxPoint x="-125" y="1160" as="sourcePoint" />
            <mxPoint x="630" y="750" as="targetPoint" />
          </mxGeometry>
        </mxCell>
        <mxCell id="qtXVRn9v_pat29216-Ta-25" value="" style="edgeStyle=none;html=1;endArrow=none;verticalAlign=bottom;rounded=0;exitX=0.529;exitY=0.643;exitDx=0;exitDy=0;exitPerimeter=0;entryX=0;entryY=0.5;entryDx=0;entryDy=0;" edge="1" parent="1" source="qtXVRn9v_pat29216-Ta-18" target="qtXVRn9v_pat29216-Ta-20">
          <mxGeometry width="160" relative="1" as="geometry">
            <mxPoint x="450" y="230" as="sourcePoint" />
            <mxPoint x="610" y="230" as="targetPoint" />
          </mxGeometry>
        </mxCell>
        <mxCell id="qtXVRn9v_pat29216-Ta-26" value="" style="edgeStyle=none;html=1;endArrow=none;verticalAlign=bottom;rounded=0;exitX=0.603;exitY=0.689;exitDx=0;exitDy=0;exitPerimeter=0;entryX=0;entryY=0.5;entryDx=0;entryDy=0;" edge="1" parent="1" source="qtXVRn9v_pat29216-Ta-18" target="qtXVRn9v_pat29216-Ta-19">
          <mxGeometry width="160" relative="1" as="geometry">
            <mxPoint x="450" y="230" as="sourcePoint" />
            <mxPoint x="610" y="230" as="targetPoint" />
          </mxGeometry>
        </mxCell>
        <mxCell id="qtXVRn9v_pat29216-Ta-27" value="" style="edgeStyle=none;html=1;endArrow=block;endFill=0;endSize=12;verticalAlign=bottom;rounded=0;" edge="1" parent="1" target="qtXVRn9v_pat29216-Ta-6">
          <mxGeometry width="160" relative="1" as="geometry">
            <mxPoint x="-130" y="150" as="sourcePoint" />
            <mxPoint x="-80" y="600" as="targetPoint" />
          </mxGeometry>
        </mxCell>
        <mxCell id="qtXVRn9v_pat29216-Ta-28" value="" style="edgeStyle=none;html=1;endArrow=block;endFill=0;endSize=12;verticalAlign=bottom;rounded=0;" edge="1" parent="1" source="qtXVRn9v_pat29216-Ta-21">
          <mxGeometry width="160" relative="1" as="geometry">
            <mxPoint x="-10" y="1290" as="sourcePoint" />
            <mxPoint x="-130" y="690" as="targetPoint" />
          </mxGeometry>
        </mxCell>
        <mxCell id="qtXVRn9v_pat29216-Ta-29" value="Consulter et modifier un dossier" style="shape=rect;html=1;verticalAlign=top;fontStyle=1;whiteSpace=wrap;align=center;" vertex="1" parent="1">
          <mxGeometry x="-108" y="2250" width="888" height="510" as="geometry" />
        </mxCell>
        <mxCell id="qtXVRn9v_pat29216-Ta-30" value="Médecin traitant" style="shape=umlActor;html=1;verticalLabelPosition=bottom;verticalAlign=top;align=center;" vertex="1" parent="1">
          <mxGeometry x="-240" y="3600" width="30" height="60" as="geometry" />
        </mxCell>
        <mxCell id="qtXVRn9v_pat29216-Ta-31" value="Utilisateur" style="shape=umlActor;html=1;verticalLabelPosition=bottom;verticalAlign=top;align=center;" vertex="1" parent="1">
          <mxGeometry x="-210" y="2460" width="60" height="110" as="geometry" />
        </mxCell>
        <mxCell id="qtXVRn9v_pat29216-Ta-32" value="&lt;pre style=&quot;font-size: 12px;&quot;&gt;&lt;code class=&quot;!whitespace-pre hljs language-lua&quot; style=&quot;font-size: 12px;&quot;&gt;Rechercher un dossier &lt;/code&gt;&lt;/pre&gt;&lt;pre style=&quot;font-size: 12px;&quot;&gt;&lt;code class=&quot;!whitespace-pre hljs language-lua&quot; style=&quot;font-size: 12px;&quot;&gt;médical&lt;/code&gt;&lt;/pre&gt;" style="shape=ellipse;html=1;strokeWidth=3;fontStyle=1;whiteSpace=wrap;align=center;perimeter=ellipsePerimeter;fontSize=12;" vertex="1" parent="1">
          <mxGeometry x="140" y="2310" width="190" height="100" as="geometry" />
        </mxCell>
        <mxCell id="qtXVRn9v_pat29216-Ta-33" value="&lt;pre&gt;&lt;code class=&quot;!whitespace-pre hljs language-lua&quot;&gt;Afficher les informations &lt;/code&gt;&lt;/pre&gt;&lt;pre&gt;&lt;code class=&quot;!whitespace-pre hljs language-lua&quot;&gt;détaillées d&#39;un dossier&lt;/code&gt;&lt;/pre&gt;" style="shape=ellipse;html=1;strokeWidth=3;fontStyle=1;whiteSpace=wrap;align=center;perimeter=ellipsePerimeter;" vertex="1" parent="1">
          <mxGeometry x="140" y="2460" width="185" height="100" as="geometry" />
        </mxCell>
        <mxCell id="qtXVRn9v_pat29216-Ta-34" value="&lt;pre&gt;&lt;code class=&quot;!whitespace-pre hljs language-lua&quot;&gt;Mettre à jour &lt;/code&gt;&lt;/pre&gt;&lt;pre&gt;&lt;code class=&quot;!whitespace-pre hljs language-lua&quot;&gt;les informations&lt;/code&gt;&lt;/pre&gt;" style="shape=ellipse;html=1;strokeWidth=3;fontStyle=1;whiteSpace=wrap;align=center;perimeter=ellipsePerimeter;" vertex="1" parent="1">
          <mxGeometry x="140" y="2630" width="160" height="80" as="geometry" />
        </mxCell>
        <mxCell id="qtXVRn9v_pat29216-Ta-35" value="" style="edgeStyle=none;html=1;endArrow=none;verticalAlign=bottom;rounded=0;entryX=0;entryY=1;entryDx=0;entryDy=0;" edge="1" parent="1" source="qtXVRn9v_pat29216-Ta-31" target="qtXVRn9v_pat29216-Ta-32">
          <mxGeometry width="160" relative="1" as="geometry">
            <mxPoint x="240" y="2780" as="sourcePoint" />
            <mxPoint x="400" y="2780" as="targetPoint" />
          </mxGeometry>
        </mxCell>
        <mxCell id="qtXVRn9v_pat29216-Ta-36" value="" style="edgeStyle=none;html=1;endArrow=none;verticalAlign=bottom;rounded=0;" edge="1" parent="1" source="qtXVRn9v_pat29216-Ta-31" target="qtXVRn9v_pat29216-Ta-33">
          <mxGeometry width="160" relative="1" as="geometry">
            <mxPoint x="240" y="2780" as="sourcePoint" />
            <mxPoint x="400" y="2780" as="targetPoint" />
          </mxGeometry>
        </mxCell>
        <mxCell id="qtXVRn9v_pat29216-Ta-37" value="" style="edgeStyle=none;html=1;endArrow=none;verticalAlign=bottom;rounded=0;entryX=0;entryY=0.5;entryDx=0;entryDy=0;" edge="1" parent="1" source="qtXVRn9v_pat29216-Ta-31" target="qtXVRn9v_pat29216-Ta-34">
          <mxGeometry width="160" relative="1" as="geometry">
            <mxPoint x="-150" y="2590" as="sourcePoint" />
            <mxPoint x="400" y="2780" as="targetPoint" />
          </mxGeometry>
        </mxCell>
        <mxCell id="qtXVRn9v_pat29216-Ta-38" value="S&#39;authentifier" style="ellipse;whiteSpace=wrap;html=1;" vertex="1" parent="1">
          <mxGeometry x="610" y="2475" width="140" height="70" as="geometry" />
        </mxCell>
        <mxCell id="qtXVRn9v_pat29216-Ta-39" value="&amp;lt;&amp;lt;include&amp;gt;&amp;gt;" style="edgeStyle=none;html=1;endArrow=open;verticalAlign=bottom;dashed=1;labelBackgroundColor=none;rounded=0;exitX=1;exitY=0.5;exitDx=0;exitDy=0;" edge="1" parent="1" source="qtXVRn9v_pat29216-Ta-32" target="qtXVRn9v_pat29216-Ta-38">
          <mxGeometry width="160" relative="1" as="geometry">
            <mxPoint x="700" y="2544.33" as="sourcePoint" />
            <mxPoint x="860" y="2544.33" as="targetPoint" />
          </mxGeometry>
        </mxCell>
        <mxCell id="qtXVRn9v_pat29216-Ta-40" value="&amp;lt;&amp;lt;include&amp;gt;&amp;gt;" style="edgeStyle=none;html=1;endArrow=open;verticalAlign=bottom;dashed=1;labelBackgroundColor=none;rounded=0;entryX=0.203;entryY=0.878;entryDx=0;entryDy=0;entryPerimeter=0;" edge="1" parent="1" source="qtXVRn9v_pat29216-Ta-11" target="qtXVRn9v_pat29216-Ta-12">
          <mxGeometry width="160" relative="1" as="geometry">
            <mxPoint x="580" y="600" as="sourcePoint" />
            <mxPoint x="740" y="600" as="targetPoint" />
          </mxGeometry>
        </mxCell>
        <mxCell id="qtXVRn9v_pat29216-Ta-41" value="&amp;lt;&amp;lt;include&amp;gt;&amp;gt;" style="edgeStyle=none;html=1;endArrow=open;verticalAlign=bottom;dashed=1;labelBackgroundColor=none;rounded=0;" edge="1" parent="1" source="qtXVRn9v_pat29216-Ta-10" target="qtXVRn9v_pat29216-Ta-12">
          <mxGeometry width="160" relative="1" as="geometry">
            <mxPoint x="610" y="490" as="sourcePoint" />
            <mxPoint x="770" y="490" as="targetPoint" />
          </mxGeometry>
        </mxCell>
        <mxCell id="qtXVRn9v_pat29216-Ta-42" value="&amp;lt;&amp;lt;include&amp;gt;&amp;gt;" style="edgeStyle=none;html=1;endArrow=open;verticalAlign=bottom;dashed=1;labelBackgroundColor=none;rounded=0;exitX=1;exitY=0.5;exitDx=0;exitDy=0;entryX=0;entryY=0.5;entryDx=0;entryDy=0;" edge="1" parent="1" source="qtXVRn9v_pat29216-Ta-9" target="qtXVRn9v_pat29216-Ta-12">
          <mxGeometry width="160" relative="1" as="geometry">
            <mxPoint x="520" y="360" as="sourcePoint" />
            <mxPoint x="680" y="360" as="targetPoint" />
          </mxGeometry>
        </mxCell>
        <mxCell id="qtXVRn9v_pat29216-Ta-43" value="&amp;lt;&amp;lt;include&amp;gt;&amp;gt;" style="edgeStyle=none;html=1;endArrow=open;verticalAlign=bottom;dashed=1;labelBackgroundColor=none;rounded=0;entryX=0;entryY=0;entryDx=0;entryDy=0;" edge="1" parent="1" source="qtXVRn9v_pat29216-Ta-19" target="qtXVRn9v_pat29216-Ta-12">
          <mxGeometry width="160" relative="1" as="geometry">
            <mxPoint x="510" y="130" as="sourcePoint" />
            <mxPoint x="670" y="130" as="targetPoint" />
          </mxGeometry>
        </mxCell>
        <mxCell id="qtXVRn9v_pat29216-Ta-44" value="&amp;lt;&amp;lt;include&amp;gt;&amp;gt;" style="edgeStyle=none;html=1;endArrow=open;verticalAlign=bottom;dashed=1;labelBackgroundColor=none;rounded=0;exitX=0.99;exitY=0.62;exitDx=0;exitDy=0;exitPerimeter=0;entryX=0.056;entryY=0.289;entryDx=0;entryDy=0;entryPerimeter=0;" edge="1" parent="1" source="qtXVRn9v_pat29216-Ta-8" target="qtXVRn9v_pat29216-Ta-12">
          <mxGeometry width="160" relative="1" as="geometry">
            <mxPoint x="540" y="230" as="sourcePoint" />
            <mxPoint x="700" y="230" as="targetPoint" />
          </mxGeometry>
        </mxCell>
        <mxCell id="qtXVRn9v_pat29216-Ta-45" value="&amp;lt;&amp;lt;include&amp;gt;&amp;gt;" style="edgeStyle=none;html=1;endArrow=open;verticalAlign=bottom;dashed=1;labelBackgroundColor=none;rounded=0;exitX=1;exitY=0.5;exitDx=0;exitDy=0;" edge="1" parent="1" source="qtXVRn9v_pat29216-Ta-20" target="qtXVRn9v_pat29216-Ta-12">
          <mxGeometry width="160" relative="1" as="geometry">
            <mxPoint x="510" y="-100" as="sourcePoint" />
            <mxPoint x="670" y="-100" as="targetPoint" />
          </mxGeometry>
        </mxCell>
        <mxCell id="qtXVRn9v_pat29216-Ta-46" value="&amp;lt;&amp;lt;include&amp;gt;&amp;gt;" style="edgeStyle=none;html=1;endArrow=open;verticalAlign=bottom;dashed=1;labelBackgroundColor=none;rounded=0;exitX=1;exitY=0;exitDx=0;exitDy=0;entryX=0.389;entryY=1;entryDx=0;entryDy=0;entryPerimeter=0;" edge="1" parent="1" source="qtXVRn9v_pat29216-Ta-17" target="qtXVRn9v_pat29216-Ta-12">
          <mxGeometry width="160" relative="1" as="geometry">
            <mxPoint x="490" y="740" as="sourcePoint" />
            <mxPoint x="650" y="740" as="targetPoint" />
          </mxGeometry>
        </mxCell>
        <mxCell id="qtXVRn9v_pat29216-Ta-47" value="&amp;lt;&amp;lt;include&amp;gt;&amp;gt;" style="edgeStyle=none;html=1;endArrow=open;verticalAlign=bottom;dashed=1;labelBackgroundColor=none;rounded=0;exitX=1;exitY=0;exitDx=0;exitDy=0;entryX=0.664;entryY=0.985;entryDx=0;entryDy=0;entryPerimeter=0;" edge="1" parent="1" source="qtXVRn9v_pat29216-Ta-22" target="qtXVRn9v_pat29216-Ta-12">
          <mxGeometry width="160" relative="1" as="geometry">
            <mxPoint x="640" y="1080" as="sourcePoint" />
            <mxPoint x="800" y="1080" as="targetPoint" />
          </mxGeometry>
        </mxCell>
        <mxCell id="qtXVRn9v_pat29216-Ta-48" value="&amp;lt;&amp;lt;include&amp;gt;&amp;gt;" style="edgeStyle=none;html=1;endArrow=open;verticalAlign=bottom;dashed=1;labelBackgroundColor=none;rounded=0;exitX=1;exitY=0.5;exitDx=0;exitDy=0;entryX=0;entryY=0.5;entryDx=0;entryDy=0;" edge="1" parent="1" source="qtXVRn9v_pat29216-Ta-33" target="qtXVRn9v_pat29216-Ta-38">
          <mxGeometry width="160" relative="1" as="geometry">
            <mxPoint x="390" y="2550" as="sourcePoint" />
            <mxPoint x="550" y="2550" as="targetPoint" />
          </mxGeometry>
        </mxCell>
        <mxCell id="qtXVRn9v_pat29216-Ta-49" value="&amp;lt;&amp;lt;include&amp;gt;&amp;gt;" style="edgeStyle=none;html=1;endArrow=open;verticalAlign=bottom;dashed=1;labelBackgroundColor=none;rounded=0;exitX=1;exitY=0.5;exitDx=0;exitDy=0;entryX=0;entryY=1;entryDx=0;entryDy=0;" edge="1" parent="1" source="qtXVRn9v_pat29216-Ta-34" target="qtXVRn9v_pat29216-Ta-38">
          <mxGeometry width="160" relative="1" as="geometry">
            <mxPoint x="490" y="2650" as="sourcePoint" />
            <mxPoint x="650" y="2650" as="targetPoint" />
          </mxGeometry>
        </mxCell>
        <mxCell id="qtXVRn9v_pat29216-Ta-50" value="consulter le dossier médical" style="ellipse;whiteSpace=wrap;html=1;" vertex="1" parent="1">
          <mxGeometry x="60" y="3380" width="140" height="70" as="geometry" />
        </mxCell>
        <mxCell id="qtXVRn9v_pat29216-Ta-51" value="modifier le dossier médical" style="ellipse;whiteSpace=wrap;html=1;" vertex="1" parent="1">
          <mxGeometry x="60" y="3480" width="140" height="70" as="geometry" />
        </mxCell>
        <mxCell id="qtXVRn9v_pat29216-Ta-52" value="supprimer une&lt;br style=&quot;border-color: var(--border-color);&quot;&gt;consultation / hospitalisation" style="ellipse;whiteSpace=wrap;html=1;" vertex="1" parent="1">
          <mxGeometry x="-75" y="3930" width="170" height="70" as="geometry" />
        </mxCell>
        <mxCell id="qtXVRn9v_pat29216-Ta-54" value="enregistrer l&#39;ordonnance" style="ellipse;whiteSpace=wrap;html=1;" vertex="1" parent="1">
          <mxGeometry x="320" y="3700" width="140" height="70" as="geometry" />
        </mxCell>
        <mxCell id="qtXVRn9v_pat29216-Ta-55" value="s&#39;authentifier" style="ellipse;whiteSpace=wrap;html=1;" vertex="1" parent="1">
          <mxGeometry x="495" y="3360" width="140" height="70" as="geometry" />
        </mxCell>
        <mxCell id="qtXVRn9v_pat29216-Ta-56" value="&amp;lt;&amp;lt;include&amp;gt;&amp;gt;" style="edgeStyle=none;html=1;endArrow=open;verticalAlign=bottom;dashed=1;labelBackgroundColor=none;rounded=0;exitX=0.98;exitY=0.659;exitDx=0;exitDy=0;exitPerimeter=0;entryX=0;entryY=0.5;entryDx=0;entryDy=0;" edge="1" parent="1" source="qtXVRn9v_pat29216-Ta-50" target="qtXVRn9v_pat29216-Ta-55">
          <mxGeometry width="160" relative="1" as="geometry">
            <mxPoint x="220" y="3490" as="sourcePoint" />
            <mxPoint x="380" y="3490" as="targetPoint" />
          </mxGeometry>
        </mxCell>
        <mxCell id="qtXVRn9v_pat29216-Ta-57" value="&amp;lt;&amp;lt;include&amp;gt;&amp;gt;" style="edgeStyle=none;html=1;endArrow=open;verticalAlign=bottom;dashed=1;labelBackgroundColor=none;rounded=0;exitX=1;exitY=0.5;exitDx=0;exitDy=0;" edge="1" parent="1" source="qtXVRn9v_pat29216-Ta-51" target="qtXVRn9v_pat29216-Ta-55">
          <mxGeometry width="160" relative="1" as="geometry">
            <mxPoint x="250" y="3570" as="sourcePoint" />
            <mxPoint x="410" y="3570" as="targetPoint" />
          </mxGeometry>
        </mxCell>
        <mxCell id="qtXVRn9v_pat29216-Ta-58" value="&amp;lt;&amp;lt;include&amp;gt;&amp;gt;" style="edgeStyle=none;html=1;endArrow=open;verticalAlign=bottom;dashed=1;labelBackgroundColor=none;rounded=0;" edge="1" parent="1" source="qtXVRn9v_pat29216-Ta-52" target="qtXVRn9v_pat29216-Ta-55">
          <mxGeometry x="0.4225" y="-9" width="160" relative="1" as="geometry">
            <mxPoint x="260" y="3660" as="sourcePoint" />
            <mxPoint x="420" y="3660" as="targetPoint" />
            <Array as="points">
              <mxPoint x="120" y="4050" />
              <mxPoint x="810" y="4050" />
              <mxPoint x="760" y="3580" />
            </Array>
            <mxPoint as="offset" />
          </mxGeometry>
        </mxCell>
        <mxCell id="qtXVRn9v_pat29216-Ta-60" value="" style="edgeStyle=none;html=1;endArrow=none;verticalAlign=bottom;rounded=0;" edge="1" parent="1" source="qtXVRn9v_pat29216-Ta-30" target="qtXVRn9v_pat29216-Ta-50">
          <mxGeometry width="160" relative="1" as="geometry">
            <mxPoint x="-220" y="3590" as="sourcePoint" />
            <mxPoint x="-60" y="3590" as="targetPoint" />
          </mxGeometry>
        </mxCell>
        <mxCell id="qtXVRn9v_pat29216-Ta-61" value="" style="edgeStyle=none;html=1;endArrow=none;verticalAlign=bottom;rounded=0;" edge="1" parent="1" source="qtXVRn9v_pat29216-Ta-30" target="qtXVRn9v_pat29216-Ta-51">
          <mxGeometry width="160" relative="1" as="geometry">
            <mxPoint x="-240" y="3610" as="sourcePoint" />
            <mxPoint x="-80" y="3610" as="targetPoint" />
          </mxGeometry>
        </mxCell>
        <mxCell id="qtXVRn9v_pat29216-Ta-62" value="" style="edgeStyle=none;html=1;endArrow=none;verticalAlign=bottom;rounded=0;" edge="1" parent="1" source="qtXVRn9v_pat29216-Ta-30" target="qtXVRn9v_pat29216-Ta-52">
          <mxGeometry width="160" relative="1" as="geometry">
            <mxPoint x="-150" y="3610" as="sourcePoint" />
            <mxPoint x="10" y="3610" as="targetPoint" />
          </mxGeometry>
        </mxCell>
        <mxCell id="qtXVRn9v_pat29216-Ta-63" value="enregistrer l&#39;examen test" style="ellipse;whiteSpace=wrap;html=1;" vertex="1" parent="1">
          <mxGeometry x="60" y="3740" width="140" height="70" as="geometry" />
        </mxCell>
        <mxCell id="qtXVRn9v_pat29216-Ta-67" value="Ajouter une &lt;br&gt;consultation / hospitalisation" style="ellipse;whiteSpace=wrap;html=1;" vertex="1" parent="1">
          <mxGeometry x="40" y="3590" width="160" height="70" as="geometry" />
        </mxCell>
        <mxCell id="qtXVRn9v_pat29216-Ta-68" value="" style="edgeStyle=none;html=1;endArrow=none;verticalAlign=bottom;rounded=0;" edge="1" parent="1" source="qtXVRn9v_pat29216-Ta-30" target="qtXVRn9v_pat29216-Ta-67">
          <mxGeometry width="160" relative="1" as="geometry">
            <mxPoint x="-210" y="3640" as="sourcePoint" />
            <mxPoint x="80" y="3710" as="targetPoint" />
          </mxGeometry>
        </mxCell>
        <mxCell id="qtXVRn9v_pat29216-Ta-69" value="enregistrer le diagnostique" style="ellipse;whiteSpace=wrap;html=1;" vertex="1" parent="1">
          <mxGeometry x="313" y="3520" width="140" height="70" as="geometry" />
        </mxCell>
        <mxCell id="qtXVRn9v_pat29216-Ta-71" value="&lt;font face=&quot;Helvetica&quot;&gt;&lt;span style=&quot;font-size: 15px;&quot;&gt;Gestion des dossiers médicaux (général)&lt;/span&gt;&lt;/font&gt;" style="shape=rect;html=1;verticalAlign=top;fontStyle=1;whiteSpace=wrap;align=center;fontFamily=Comic Sans MS;" vertex="1" parent="1">
          <mxGeometry x="2325" y="-110" width="1725" height="2030" as="geometry" />
        </mxCell>
        <mxCell id="qtXVRn9v_pat29216-Ta-72" value="Utilisateur" style="shape=umlActor;html=1;verticalLabelPosition=bottom;verticalAlign=top;align=center;" vertex="1" parent="1">
          <mxGeometry x="2057.5" y="680" width="120" height="200" as="geometry" />
        </mxCell>
        <mxCell id="qtXVRn9v_pat29216-Ta-73" style="edgeStyle=orthogonalEdgeStyle;rounded=0;orthogonalLoop=1;jettySize=auto;html=1;exitX=0.5;exitY=1;exitDx=0;exitDy=0;" edge="1" parent="1" source="qtXVRn9v_pat29216-Ta-71" target="qtXVRn9v_pat29216-Ta-71">
          <mxGeometry relative="1" as="geometry" />
        </mxCell>
        <mxCell id="qtXVRn9v_pat29216-Ta-74" value="s&#39;authentifier" style="ellipse;whiteSpace=wrap;html=1;" vertex="1" parent="1">
          <mxGeometry x="3400" y="760" width="180" height="90" as="geometry" />
        </mxCell>
        <mxCell id="qtXVRn9v_pat29216-Ta-75" value="" style="edgeStyle=none;html=1;endArrow=none;verticalAlign=bottom;rounded=0;exitX=0.5;exitY=0.5;exitDx=0;exitDy=0;exitPerimeter=0;" edge="1" parent="1" source="qtXVRn9v_pat29216-Ta-72" target="qtXVRn9v_pat29216-Ta-128">
          <mxGeometry width="160" relative="1" as="geometry">
            <mxPoint x="2645" y="600" as="sourcePoint" />
            <mxPoint x="2613.015302582756" y="447.8327313288987" as="targetPoint" />
          </mxGeometry>
        </mxCell>
        <mxCell id="qtXVRn9v_pat29216-Ta-76" value="" style="edgeStyle=none;html=1;endArrow=none;verticalAlign=bottom;rounded=0;exitX=0.5;exitY=0.5;exitDx=0;exitDy=0;exitPerimeter=0;" edge="1" parent="1" source="qtXVRn9v_pat29216-Ta-72" target="qtXVRn9v_pat29216-Ta-129">
          <mxGeometry width="160" relative="1" as="geometry">
            <mxPoint x="2265" y="580" as="sourcePoint" />
            <mxPoint x="2604.088576122218" y="568.0682641001849" as="targetPoint" />
          </mxGeometry>
        </mxCell>
        <mxCell id="qtXVRn9v_pat29216-Ta-77" value="" style="edgeStyle=none;html=1;endArrow=none;verticalAlign=bottom;rounded=0;exitX=0.5;exitY=0.5;exitDx=0;exitDy=0;exitPerimeter=0;" edge="1" parent="1" source="qtXVRn9v_pat29216-Ta-72" target="qtXVRn9v_pat29216-Ta-130">
          <mxGeometry width="160" relative="1" as="geometry">
            <mxPoint x="2265" y="580" as="sourcePoint" />
            <mxPoint x="2592.49521396409" y="692.0932756805487" as="targetPoint" />
          </mxGeometry>
        </mxCell>
        <mxCell id="qtXVRn9v_pat29216-Ta-78" value="" style="edgeStyle=none;html=1;endArrow=none;verticalAlign=bottom;rounded=0;exitX=0.5;exitY=0.5;exitDx=0;exitDy=0;exitPerimeter=0;" edge="1" parent="1" source="qtXVRn9v_pat29216-Ta-72" target="qtXVRn9v_pat29216-Ta-122">
          <mxGeometry width="160" relative="1" as="geometry">
            <mxPoint x="2265" y="580" as="sourcePoint" />
            <mxPoint x="2569.999999999999" y="820" as="targetPoint" />
          </mxGeometry>
        </mxCell>
        <mxCell id="qtXVRn9v_pat29216-Ta-79" value="sage-femme" style="shape=umlActor;html=1;verticalLabelPosition=bottom;verticalAlign=top;align=center;" vertex="1" parent="1">
          <mxGeometry x="2057.5" y="290" width="120" height="200" as="geometry" />
        </mxCell>
        <mxCell id="qtXVRn9v_pat29216-Ta-80" value="Ajouter une observation sur la mère" style="ellipse;whiteSpace=wrap;html=1;" vertex="1" parent="1">
          <mxGeometry x="2610" y="250" width="140" height="70" as="geometry" />
        </mxCell>
        <mxCell id="qtXVRn9v_pat29216-Ta-81" value="pediatre" style="shape=umlActor;html=1;verticalLabelPosition=bottom;verticalAlign=top;align=center;" vertex="1" parent="1">
          <mxGeometry x="2060" y="-10" width="117.5" height="200" as="geometry" />
        </mxCell>
        <mxCell id="qtXVRn9v_pat29216-Ta-82" value="Ajouter une observation sur le bébé" style="ellipse;whiteSpace=wrap;html=1;" vertex="1" parent="1">
          <mxGeometry x="2610" y="45" width="150" height="90" as="geometry" />
        </mxCell>
        <mxCell id="qtXVRn9v_pat29216-Ta-83" value="" style="edgeStyle=none;html=1;endArrow=none;verticalAlign=bottom;rounded=0;exitX=0.492;exitY=0.53;exitDx=0;exitDy=0;exitPerimeter=0;entryX=0;entryY=0.5;entryDx=0;entryDy=0;" edge="1" parent="1" source="qtXVRn9v_pat29216-Ta-81" target="qtXVRn9v_pat29216-Ta-127">
          <mxGeometry width="160" relative="1" as="geometry">
            <mxPoint x="2135" y="1200" as="sourcePoint" />
            <mxPoint x="2591.1926599000517" y="-9.352188728000783" as="targetPoint" />
          </mxGeometry>
        </mxCell>
        <mxCell id="qtXVRn9v_pat29216-Ta-84" value="" style="edgeStyle=none;html=1;endArrow=none;verticalAlign=bottom;rounded=0;exitX=0.488;exitY=0.616;exitDx=0;exitDy=0;exitPerimeter=0;" edge="1" parent="1" source="qtXVRn9v_pat29216-Ta-81" target="qtXVRn9v_pat29216-Ta-82">
          <mxGeometry width="160" relative="1" as="geometry">
            <mxPoint x="2130" y="1350" as="sourcePoint" />
            <mxPoint x="2885" y="940" as="targetPoint" />
          </mxGeometry>
        </mxCell>
        <mxCell id="qtXVRn9v_pat29216-Ta-85" value="" style="edgeStyle=none;html=1;endArrow=none;verticalAlign=bottom;rounded=0;exitX=0.529;exitY=0.643;exitDx=0;exitDy=0;exitPerimeter=0;entryX=0;entryY=0.5;entryDx=0;entryDy=0;" edge="1" parent="1" source="qtXVRn9v_pat29216-Ta-79" target="qtXVRn9v_pat29216-Ta-80">
          <mxGeometry width="160" relative="1" as="geometry">
            <mxPoint x="2705" y="420" as="sourcePoint" />
            <mxPoint x="2865" y="420" as="targetPoint" />
          </mxGeometry>
        </mxCell>
        <mxCell id="qtXVRn9v_pat29216-Ta-86" value="" style="edgeStyle=none;html=1;endArrow=none;verticalAlign=bottom;rounded=0;exitX=0.5;exitY=0.5;exitDx=0;exitDy=0;exitPerimeter=0;" edge="1" parent="1" source="qtXVRn9v_pat29216-Ta-79" target="qtXVRn9v_pat29216-Ta-126">
          <mxGeometry width="160" relative="1" as="geometry">
            <mxPoint x="2705" y="420" as="sourcePoint" />
            <mxPoint x="2569.999999999999" y="195" as="targetPoint" />
          </mxGeometry>
        </mxCell>
        <mxCell id="qtXVRn9v_pat29216-Ta-87" value="" style="edgeStyle=none;html=1;endArrow=block;endFill=0;endSize=12;verticalAlign=bottom;rounded=0;" edge="1" parent="1" target="qtXVRn9v_pat29216-Ta-72">
          <mxGeometry width="160" relative="1" as="geometry">
            <mxPoint x="2120" y="520" as="sourcePoint" />
            <mxPoint x="2175" y="790" as="targetPoint" />
          </mxGeometry>
        </mxCell>
        <mxCell id="qtXVRn9v_pat29216-Ta-88" value="" style="edgeStyle=none;html=1;endArrow=block;endFill=0;endSize=12;verticalAlign=bottom;rounded=0;" edge="1" parent="1" source="qtXVRn9v_pat29216-Ta-81" target="qtXVRn9v_pat29216-Ta-72">
          <mxGeometry width="160" relative="1" as="geometry">
            <mxPoint x="2245" y="1480" as="sourcePoint" />
            <mxPoint x="2125" y="880" as="targetPoint" />
            <Array as="points">
              <mxPoint x="1870" y="90" />
              <mxPoint x="1870" y="780" />
            </Array>
          </mxGeometry>
        </mxCell>
        <mxCell id="qtXVRn9v_pat29216-Ta-89" value="&amp;lt;&amp;lt;include&amp;gt;&amp;gt;" style="edgeStyle=none;html=1;endArrow=open;verticalAlign=bottom;dashed=1;labelBackgroundColor=none;rounded=0;entryX=0.003;entryY=0.4;entryDx=0;entryDy=0;entryPerimeter=0;" edge="1" parent="1" source="qtXVRn9v_pat29216-Ta-122" target="qtXVRn9v_pat29216-Ta-74">
          <mxGeometry width="160" relative="1" as="geometry">
            <mxPoint x="2789.810585382188" y="816.480429955699" as="sourcePoint" />
            <mxPoint x="2995" y="790" as="targetPoint" />
          </mxGeometry>
        </mxCell>
        <mxCell id="qtXVRn9v_pat29216-Ta-90" value="&amp;lt;&amp;lt;include&amp;gt;&amp;gt;" style="edgeStyle=none;html=1;endArrow=open;verticalAlign=bottom;dashed=1;labelBackgroundColor=none;rounded=0;entryX=0.066;entryY=0.267;entryDx=0;entryDy=0;entryPerimeter=0;" edge="1" parent="1" source="qtXVRn9v_pat29216-Ta-130" target="qtXVRn9v_pat29216-Ta-74">
          <mxGeometry width="160" relative="1" as="geometry">
            <mxPoint x="2779.9751000094147" y="689.0852902556335" as="sourcePoint" />
            <mxPoint x="3025" y="680" as="targetPoint" />
          </mxGeometry>
        </mxCell>
        <mxCell id="qtXVRn9v_pat29216-Ta-91" value="&amp;lt;&amp;lt;include&amp;gt;&amp;gt;" style="edgeStyle=none;html=1;endArrow=open;verticalAlign=bottom;dashed=1;labelBackgroundColor=none;rounded=0;entryX=0;entryY=0;entryDx=0;entryDy=0;" edge="1" parent="1" source="qtXVRn9v_pat29216-Ta-129" target="qtXVRn9v_pat29216-Ta-74">
          <mxGeometry width="160" relative="1" as="geometry">
            <mxPoint x="2774.999999999998" y="535" as="sourcePoint" />
            <mxPoint x="2935" y="550" as="targetPoint" />
          </mxGeometry>
        </mxCell>
        <mxCell id="qtXVRn9v_pat29216-Ta-92" value="&amp;lt;&amp;lt;include&amp;gt;&amp;gt;" style="edgeStyle=none;html=1;endArrow=open;verticalAlign=bottom;dashed=1;labelBackgroundColor=none;rounded=0;entryX=0.5;entryY=0;entryDx=0;entryDy=0;exitX=0.945;exitY=0.744;exitDx=0;exitDy=0;exitPerimeter=0;" edge="1" parent="1" source="qtXVRn9v_pat29216-Ta-126" target="qtXVRn9v_pat29216-Ta-74">
          <mxGeometry width="160" relative="1" as="geometry">
            <mxPoint x="2722.4431998571345" y="232.4169557070568" as="sourcePoint" />
            <mxPoint x="2925" y="320" as="targetPoint" />
          </mxGeometry>
        </mxCell>
        <mxCell id="qtXVRn9v_pat29216-Ta-93" value="&amp;lt;&amp;lt;include&amp;gt;&amp;gt;" style="edgeStyle=none;html=1;endArrow=open;verticalAlign=bottom;dashed=1;labelBackgroundColor=none;rounded=0;exitX=0.99;exitY=0.62;exitDx=0;exitDy=0;exitPerimeter=0;entryX=0.199;entryY=0.116;entryDx=0;entryDy=0;entryPerimeter=0;" edge="1" parent="1" target="qtXVRn9v_pat29216-Ta-74">
          <mxGeometry width="160" relative="1" as="geometry">
            <mxPoint x="2776.96" y="418.1999999999998" as="sourcePoint" />
            <mxPoint x="2955" y="420" as="targetPoint" />
          </mxGeometry>
        </mxCell>
        <mxCell id="qtXVRn9v_pat29216-Ta-94" value="&amp;lt;&amp;lt;include&amp;gt;&amp;gt;" style="edgeStyle=none;html=1;endArrow=open;verticalAlign=bottom;dashed=1;labelBackgroundColor=none;rounded=0;exitX=1;exitY=0.5;exitDx=0;exitDy=0;entryX=0.274;entryY=0.062;entryDx=0;entryDy=0;entryPerimeter=0;" edge="1" parent="1" source="qtXVRn9v_pat29216-Ta-80" target="qtXVRn9v_pat29216-Ta-74">
          <mxGeometry width="160" relative="1" as="geometry">
            <mxPoint x="2765" y="90" as="sourcePoint" />
            <mxPoint x="2925" y="90" as="targetPoint" />
          </mxGeometry>
        </mxCell>
        <mxCell id="qtXVRn9v_pat29216-Ta-95" value="&amp;lt;&amp;lt;include&amp;gt;&amp;gt;" style="edgeStyle=none;html=1;endArrow=open;verticalAlign=bottom;dashed=1;labelBackgroundColor=none;rounded=0;entryX=1;entryY=0;entryDx=0;entryDy=0;exitX=1.015;exitY=0.632;exitDx=0;exitDy=0;exitPerimeter=0;" edge="1" parent="1" source="qtXVRn9v_pat29216-Ta-127" target="qtXVRn9v_pat29216-Ta-74">
          <mxGeometry width="160" relative="1" as="geometry">
            <mxPoint x="2782.8500000000004" y="-14.700000000000273" as="sourcePoint" />
            <mxPoint x="2905" y="930" as="targetPoint" />
          </mxGeometry>
        </mxCell>
        <mxCell id="qtXVRn9v_pat29216-Ta-96" value="&amp;lt;&amp;lt;include&amp;gt;&amp;gt;" style="edgeStyle=none;html=1;endArrow=open;verticalAlign=bottom;dashed=1;labelBackgroundColor=none;rounded=0;exitX=1;exitY=0;exitDx=0;exitDy=0;entryX=0.714;entryY=0.062;entryDx=0;entryDy=0;entryPerimeter=0;" edge="1" parent="1" source="qtXVRn9v_pat29216-Ta-82" target="qtXVRn9v_pat29216-Ta-74">
          <mxGeometry width="160" relative="1" as="geometry">
            <mxPoint x="2895" y="1270" as="sourcePoint" />
            <mxPoint x="3055" y="1270" as="targetPoint" />
          </mxGeometry>
        </mxCell>
        <mxCell id="qtXVRn9v_pat29216-Ta-97" value="&amp;lt;&amp;lt;include&amp;gt;&amp;gt;" style="edgeStyle=none;html=1;endArrow=open;verticalAlign=bottom;dashed=1;labelBackgroundColor=none;rounded=0;" edge="1" parent="1" source="qtXVRn9v_pat29216-Ta-123" target="qtXVRn9v_pat29216-Ta-74">
          <mxGeometry width="160" relative="1" as="geometry">
            <mxPoint x="2766.000000000022" y="960" as="sourcePoint" />
            <mxPoint x="3280" y="1454.33" as="targetPoint" />
          </mxGeometry>
        </mxCell>
        <mxCell id="qtXVRn9v_pat29216-Ta-98" value="&amp;lt;&amp;lt;include&amp;gt;&amp;gt;" style="edgeStyle=none;html=1;endArrow=open;verticalAlign=bottom;dashed=1;labelBackgroundColor=none;rounded=0;" edge="1" parent="1" source="qtXVRn9v_pat29216-Ta-124" target="qtXVRn9v_pat29216-Ta-74">
          <mxGeometry width="160" relative="1" as="geometry">
            <mxPoint x="2759.999999999988" y="1089.9999999999995" as="sourcePoint" />
            <mxPoint x="2970" y="1460" as="targetPoint" />
          </mxGeometry>
        </mxCell>
        <mxCell id="qtXVRn9v_pat29216-Ta-99" value="&amp;lt;&amp;lt;include&amp;gt;&amp;gt;" style="edgeStyle=none;html=1;endArrow=open;verticalAlign=bottom;dashed=1;labelBackgroundColor=none;rounded=0;" edge="1" parent="1" source="qtXVRn9v_pat29216-Ta-125" target="qtXVRn9v_pat29216-Ta-74">
          <mxGeometry width="160" relative="1" as="geometry">
            <mxPoint x="2748" y="1209" as="sourcePoint" />
            <mxPoint x="3070" y="1560" as="targetPoint" />
          </mxGeometry>
        </mxCell>
        <mxCell id="qtXVRn9v_pat29216-Ta-100" value="Médecin traitant" style="shape=umlActor;html=1;verticalLabelPosition=bottom;verticalAlign=top;align=center;" vertex="1" parent="1">
          <mxGeometry x="2057.5" y="1445" width="120" height="200" as="geometry" />
        </mxCell>
        <mxCell id="qtXVRn9v_pat29216-Ta-101" value="consulter le dossier médical" style="ellipse;whiteSpace=wrap;html=1;" vertex="1" parent="1">
          <mxGeometry x="2600" y="1290" width="140" height="70" as="geometry" />
        </mxCell>
        <mxCell id="qtXVRn9v_pat29216-Ta-102" value="modifier le dossier médical" style="ellipse;whiteSpace=wrap;html=1;" vertex="1" parent="1">
          <mxGeometry x="2600" y="1390" width="140" height="70" as="geometry" />
        </mxCell>
        <mxCell id="qtXVRn9v_pat29216-Ta-103" value="ajouter une&lt;br&gt;&amp;nbsp;consultation / hospitalisation" style="ellipse;whiteSpace=wrap;html=1;" vertex="1" parent="1">
          <mxGeometry x="2590" y="1510" width="170" height="70" as="geometry" />
        </mxCell>
        <mxCell id="qtXVRn9v_pat29216-Ta-104" value="ajouter un&amp;nbsp;médicament" style="ellipse;whiteSpace=wrap;html=1;" vertex="1" parent="1">
          <mxGeometry x="2595" y="1810" width="160" height="70" as="geometry" />
        </mxCell>
        <mxCell id="qtXVRn9v_pat29216-Ta-105" value="réaliser des tests et analyses et enregistrer les résultats&amp;nbsp;" style="ellipse;whiteSpace=wrap;html=1;" vertex="1" parent="1">
          <mxGeometry x="3280" y="1575" width="140" height="70" as="geometry" />
        </mxCell>
        <mxCell id="qtXVRn9v_pat29216-Ta-106" value="&amp;lt;&amp;lt;include&amp;gt;&amp;gt;" style="edgeStyle=none;html=1;endArrow=open;verticalAlign=bottom;dashed=1;labelBackgroundColor=none;rounded=0;" edge="1" parent="1" source="qtXVRn9v_pat29216-Ta-101" target="qtXVRn9v_pat29216-Ta-74">
          <mxGeometry width="160" relative="1" as="geometry">
            <mxPoint x="2760" y="1400" as="sourcePoint" />
            <mxPoint x="2920" y="1400" as="targetPoint" />
          </mxGeometry>
        </mxCell>
        <mxCell id="qtXVRn9v_pat29216-Ta-107" value="&amp;lt;&amp;lt;include&amp;gt;&amp;gt;" style="edgeStyle=none;html=1;endArrow=open;verticalAlign=bottom;dashed=1;labelBackgroundColor=none;rounded=0;exitX=1;exitY=0.5;exitDx=0;exitDy=0;" edge="1" parent="1" source="qtXVRn9v_pat29216-Ta-102" target="qtXVRn9v_pat29216-Ta-74">
          <mxGeometry width="160" relative="1" as="geometry">
            <mxPoint x="2790" y="1480" as="sourcePoint" />
            <mxPoint x="2950" y="1480" as="targetPoint" />
          </mxGeometry>
        </mxCell>
        <mxCell id="qtXVRn9v_pat29216-Ta-108" value="&amp;lt;&amp;lt;include&amp;gt;&amp;gt;" style="edgeStyle=none;html=1;endArrow=open;verticalAlign=bottom;dashed=1;labelBackgroundColor=none;rounded=0;exitX=1;exitY=0.5;exitDx=0;exitDy=0;" edge="1" parent="1" source="qtXVRn9v_pat29216-Ta-103" target="qtXVRn9v_pat29216-Ta-74">
          <mxGeometry width="160" relative="1" as="geometry">
            <mxPoint x="2800" y="1570" as="sourcePoint" />
            <mxPoint x="2960" y="1570" as="targetPoint" />
            <Array as="points">
              <mxPoint x="2830" y="1470" />
            </Array>
          </mxGeometry>
        </mxCell>
        <mxCell id="qtXVRn9v_pat29216-Ta-109" value="&amp;lt;&amp;lt;include&amp;gt;&amp;gt;" style="edgeStyle=none;html=1;endArrow=open;verticalAlign=bottom;dashed=1;labelBackgroundColor=none;rounded=0;exitX=1;exitY=0.5;exitDx=0;exitDy=0;" edge="1" parent="1" source="qtXVRn9v_pat29216-Ta-104" target="qtXVRn9v_pat29216-Ta-74">
          <mxGeometry width="160" relative="1" as="geometry">
            <mxPoint x="2790" y="1690" as="sourcePoint" />
            <mxPoint x="2950" y="1690" as="targetPoint" />
          </mxGeometry>
        </mxCell>
        <mxCell id="qtXVRn9v_pat29216-Ta-110" value="" style="edgeStyle=none;html=1;endArrow=none;verticalAlign=bottom;rounded=0;exitX=0.5;exitY=0.5;exitDx=0;exitDy=0;exitPerimeter=0;" edge="1" parent="1" source="qtXVRn9v_pat29216-Ta-100" target="qtXVRn9v_pat29216-Ta-101">
          <mxGeometry width="160" relative="1" as="geometry">
            <mxPoint x="2320" y="1500" as="sourcePoint" />
            <mxPoint x="2480" y="1500" as="targetPoint" />
          </mxGeometry>
        </mxCell>
        <mxCell id="qtXVRn9v_pat29216-Ta-111" value="" style="edgeStyle=none;html=1;endArrow=none;verticalAlign=bottom;rounded=0;exitX=0.5;exitY=0.5;exitDx=0;exitDy=0;exitPerimeter=0;" edge="1" parent="1" source="qtXVRn9v_pat29216-Ta-100" target="qtXVRn9v_pat29216-Ta-102">
          <mxGeometry width="160" relative="1" as="geometry">
            <mxPoint x="2128" y="1550" as="sourcePoint" />
            <mxPoint x="2460" y="1520" as="targetPoint" />
          </mxGeometry>
        </mxCell>
        <mxCell id="qtXVRn9v_pat29216-Ta-112" value="" style="edgeStyle=none;html=1;endArrow=none;verticalAlign=bottom;rounded=0;exitX=0.5;exitY=0.5;exitDx=0;exitDy=0;exitPerimeter=0;" edge="1" parent="1" source="qtXVRn9v_pat29216-Ta-100" target="qtXVRn9v_pat29216-Ta-103">
          <mxGeometry width="160" relative="1" as="geometry">
            <mxPoint x="2390" y="1520" as="sourcePoint" />
            <mxPoint x="2550" y="1520" as="targetPoint" />
          </mxGeometry>
        </mxCell>
        <mxCell id="qtXVRn9v_pat29216-Ta-113" value="avoir une prescription" style="ellipse;whiteSpace=wrap;html=1;" vertex="1" parent="1">
          <mxGeometry x="3280" y="1760" width="140" height="70" as="geometry" />
        </mxCell>
        <mxCell id="qtXVRn9v_pat29216-Ta-114" value="&amp;lt;&amp;lt;include&amp;gt;&amp;gt;" style="edgeStyle=none;html=1;endArrow=open;verticalAlign=bottom;dashed=1;labelBackgroundColor=none;rounded=0;exitX=0.95;exitY=0.703;exitDx=0;exitDy=0;exitPerimeter=0;" edge="1" parent="1" source="qtXVRn9v_pat29216-Ta-104" target="qtXVRn9v_pat29216-Ta-113">
          <mxGeometry width="160" relative="1" as="geometry">
            <mxPoint x="2760" y="1740" as="sourcePoint" />
            <mxPoint x="2920" y="1740" as="targetPoint" />
          </mxGeometry>
        </mxCell>
        <mxCell id="qtXVRn9v_pat29216-Ta-115" value="&amp;lt;&amp;lt;extend&amp;gt;&amp;gt;" style="edgeStyle=none;html=1;startArrow=open;endArrow=none;startSize=12;verticalAlign=bottom;dashed=1;labelBackgroundColor=none;rounded=0;exitX=0.91;exitY=0.791;exitDx=0;exitDy=0;exitPerimeter=0;" edge="1" parent="1" source="qtXVRn9v_pat29216-Ta-103" target="qtXVRn9v_pat29216-Ta-105">
          <mxGeometry width="160" relative="1" as="geometry">
            <mxPoint x="2410" y="1590" as="sourcePoint" />
            <mxPoint x="2570" y="1590" as="targetPoint" />
          </mxGeometry>
        </mxCell>
        <mxCell id="qtXVRn9v_pat29216-Ta-116" value="" style="edgeStyle=none;html=1;endArrow=none;verticalAlign=bottom;rounded=0;exitX=0.496;exitY=0.546;exitDx=0;exitDy=0;exitPerimeter=0;" edge="1" parent="1" source="qtXVRn9v_pat29216-Ta-100" target="qtXVRn9v_pat29216-Ta-104">
          <mxGeometry width="160" relative="1" as="geometry">
            <mxPoint x="2380" y="1710" as="sourcePoint" />
            <mxPoint x="2540" y="1710" as="targetPoint" />
          </mxGeometry>
        </mxCell>
        <mxCell id="qtXVRn9v_pat29216-Ta-117" value="supprimer une &lt;br&gt;consultation / hospitalisation" style="ellipse;whiteSpace=wrap;html=1;" vertex="1" parent="1">
          <mxGeometry x="2595" y="1620" width="160" height="70" as="geometry" />
        </mxCell>
        <mxCell id="qtXVRn9v_pat29216-Ta-118" value="" style="edgeStyle=none;html=1;endArrow=none;verticalAlign=bottom;rounded=0;exitX=0.504;exitY=0.543;exitDx=0;exitDy=0;exitPerimeter=0;" edge="1" parent="1" source="qtXVRn9v_pat29216-Ta-100" target="qtXVRn9v_pat29216-Ta-117">
          <mxGeometry width="160" relative="1" as="geometry">
            <mxPoint x="2330" y="1550" as="sourcePoint" />
            <mxPoint x="2620" y="1620" as="targetPoint" />
          </mxGeometry>
        </mxCell>
        <mxCell id="qtXVRn9v_pat29216-Ta-119" value="enregistrer le diagnostique" style="ellipse;whiteSpace=wrap;html=1;" vertex="1" parent="1">
          <mxGeometry x="2605" y="1710" width="140" height="70" as="geometry" />
        </mxCell>
        <mxCell id="qtXVRn9v_pat29216-Ta-120" value="" style="edgeStyle=none;html=1;endArrow=none;verticalAlign=bottom;rounded=0;exitX=0.504;exitY=0.552;exitDx=0;exitDy=0;exitPerimeter=0;" edge="1" parent="1" source="qtXVRn9v_pat29216-Ta-100" target="qtXVRn9v_pat29216-Ta-119">
          <mxGeometry width="160" relative="1" as="geometry">
            <mxPoint x="2360" y="1590" as="sourcePoint" />
            <mxPoint x="2570" y="1680" as="targetPoint" />
          </mxGeometry>
        </mxCell>
        <mxCell id="qtXVRn9v_pat29216-Ta-121" value="" style="edgeStyle=none;html=1;endArrow=block;endFill=0;endSize=12;verticalAlign=bottom;rounded=0;" edge="1" parent="1">
          <mxGeometry width="160" relative="1" as="geometry">
            <mxPoint x="2120" y="1430" as="sourcePoint" />
            <mxPoint x="2120" y="910" as="targetPoint" />
          </mxGeometry>
        </mxCell>
        <mxCell id="qtXVRn9v_pat29216-Ta-122" value="&lt;pre style=&quot;border-color: var(--border-color); font-weight: 700;&quot;&gt;&lt;code style=&quot;border-color: var(--border-color);&quot; class=&quot;!whitespace-pre hljs language-lua&quot;&gt;Saisir les informations &lt;/code&gt;&lt;/pre&gt;&lt;pre style=&quot;border-color: var(--border-color); font-weight: 700;&quot;&gt;&lt;code style=&quot;border-color: var(--border-color);&quot; class=&quot;!whitespace-pre hljs language-lua&quot;&gt;sur les &lt;/code&gt;personnels médicaux&lt;/pre&gt;" style="ellipse;whiteSpace=wrap;html=1;" vertex="1" parent="1">
          <mxGeometry x="2570" y="770" width="196" height="110" as="geometry" />
        </mxCell>
        <mxCell id="qtXVRn9v_pat29216-Ta-123" value="&lt;pre style=&quot;border-color: var(--border-color); font-weight: 700;&quot;&gt;&lt;code style=&quot;border-color: var(--border-color);&quot; class=&quot;!whitespace-pre hljs language-lua&quot;&gt;Rechercher un dossier &lt;/code&gt;&lt;/pre&gt;&lt;pre style=&quot;border-color: var(--border-color); font-weight: 700;&quot;&gt;&lt;code style=&quot;border-color: var(--border-color);&quot; class=&quot;!whitespace-pre hljs language-lua&quot;&gt;médical&lt;/code&gt;&lt;/pre&gt;" style="ellipse;whiteSpace=wrap;html=1;" vertex="1" parent="1">
          <mxGeometry x="2592.5" y="930" width="165" height="90" as="geometry" />
        </mxCell>
        <mxCell id="qtXVRn9v_pat29216-Ta-124" value="&lt;pre style=&quot;border-color: var(--border-color); font-weight: 700;&quot;&gt;&lt;code style=&quot;border-color: var(--border-color);&quot; class=&quot;!whitespace-pre hljs language-lua&quot;&gt;Afficher les informations &lt;/code&gt;&lt;/pre&gt;&lt;pre style=&quot;border-color: var(--border-color); font-weight: 700;&quot;&gt;&lt;code style=&quot;border-color: var(--border-color);&quot; class=&quot;!whitespace-pre hljs language-lua&quot;&gt;détaillées d&#39;un dossier&lt;/code&gt;&lt;/pre&gt;" style="ellipse;whiteSpace=wrap;html=1;" vertex="1" parent="1">
          <mxGeometry x="2576" y="1050" width="190" height="100" as="geometry" />
        </mxCell>
        <mxCell id="qtXVRn9v_pat29216-Ta-125" value="&lt;pre style=&quot;border-color: var(--border-color); font-weight: 700;&quot;&gt;&lt;code style=&quot;border-color: var(--border-color);&quot; class=&quot;!whitespace-pre hljs language-lua&quot;&gt;Mettre à jour &lt;/code&gt;&lt;/pre&gt;&lt;pre style=&quot;border-color: var(--border-color); font-weight: 700;&quot;&gt;&lt;code style=&quot;border-color: var(--border-color);&quot; class=&quot;!whitespace-pre hljs language-lua&quot;&gt;les informations&lt;/code&gt;&lt;/pre&gt;" style="ellipse;whiteSpace=wrap;html=1;" vertex="1" parent="1">
          <mxGeometry x="2601" y="1190" width="140" height="70" as="geometry" />
        </mxCell>
        <mxCell id="qtXVRn9v_pat29216-Ta-126" value="Saisir les informations des résultats de tests effectués sur la mère" style="ellipse;whiteSpace=wrap;html=1;" vertex="1" parent="1">
          <mxGeometry x="2600" y="150" width="160" height="90" as="geometry" />
        </mxCell>
        <mxCell id="qtXVRn9v_pat29216-Ta-127" value="Saisir les informations des résultats de tests effectués sur le bébé" style="ellipse;whiteSpace=wrap;html=1;" vertex="1" parent="1">
          <mxGeometry x="2600" y="-70" width="175" height="90" as="geometry" />
        </mxCell>
        <mxCell id="qtXVRn9v_pat29216-Ta-128" value="&lt;pre style=&quot;border-color: var(--border-color); font-weight: 700;&quot;&gt;&lt;code style=&quot;border-color: var(--border-color);&quot; class=&quot;!whitespace-pre hljs language-lua&quot;&gt;Saisir les informations&lt;/code&gt;&lt;/pre&gt;&lt;pre style=&quot;border-color: var(--border-color); font-weight: 700;&quot;&gt;&lt;code style=&quot;border-color: var(--border-color);&quot; class=&quot;!whitespace-pre hljs language-lua&quot;&gt; sur &lt;/code&gt;le nouveau né &lt;/pre&gt;" style="ellipse;whiteSpace=wrap;html=1;" vertex="1" parent="1">
          <mxGeometry x="2582" y="350" width="186" height="101" as="geometry" />
        </mxCell>
        <mxCell id="qtXVRn9v_pat29216-Ta-129" value="&lt;pre style=&quot;border-color: var(--border-color); font-weight: 700;&quot;&gt;&lt;code style=&quot;border-color: var(--border-color);&quot; class=&quot;!whitespace-pre hljs language-lua&quot;&gt;Saisir les informations &lt;/code&gt;&lt;/pre&gt;&lt;pre style=&quot;border-color: var(--border-color); font-weight: 700;&quot;&gt;&lt;code style=&quot;border-color: var(--border-color);&quot; class=&quot;!whitespace-pre hljs language-lua&quot;&gt;sur la mère&lt;/code&gt;&lt;/pre&gt;" style="ellipse;whiteSpace=wrap;html=1;" vertex="1" parent="1">
          <mxGeometry x="2580" y="490" width="180" height="95" as="geometry" />
        </mxCell>
        <mxCell id="qtXVRn9v_pat29216-Ta-130" value="&lt;pre style=&quot;border-color: var(--border-color); font-weight: 700;&quot;&gt;&lt;code style=&quot;border-color: var(--border-color);&quot; class=&quot;!whitespace-pre hljs language-lua&quot;&gt;Saisir les informations &lt;/code&gt;&lt;/pre&gt;&lt;pre style=&quot;border-color: var(--border-color); font-weight: 700;&quot;&gt;&lt;code style=&quot;border-color: var(--border-color);&quot; class=&quot;!whitespace-pre hljs language-lua&quot;&gt;sur l&#39;accouchement&lt;/code&gt;&lt;/pre&gt;" style="ellipse;whiteSpace=wrap;html=1;" vertex="1" parent="1">
          <mxGeometry x="2579" y="630" width="188" height="90" as="geometry" />
        </mxCell>
        <mxCell id="qtXVRn9v_pat29216-Ta-131" value="suprimer le diagnostique" style="ellipse;whiteSpace=wrap;html=1;" vertex="1" parent="1">
          <mxGeometry x="325" y="3610" width="140" height="70" as="geometry" />
        </mxCell>
        <mxCell id="qtXVRn9v_pat29216-Ta-132" value="suprimer l&#39;ordonnance" style="ellipse;whiteSpace=wrap;html=1;" vertex="1" parent="1">
          <mxGeometry x="215" y="3790" width="140" height="70" as="geometry" />
        </mxCell>
        <mxCell id="qtXVRn9v_pat29216-Ta-133" value="suprimer l&#39;examen test" style="ellipse;whiteSpace=wrap;html=1;" vertex="1" parent="1">
          <mxGeometry x="-90" y="3710" width="140" height="70" as="geometry" />
        </mxCell>
        <mxCell id="qtXVRn9v_pat29216-Ta-135" value="&amp;lt;&amp;lt;extend&amp;gt;&amp;gt;" style="edgeStyle=none;html=1;endArrow=open;verticalAlign=bottom;dashed=1;labelBackgroundColor=none;rounded=0;exitX=0;exitY=0.5;exitDx=0;exitDy=0;" edge="1" parent="1" source="qtXVRn9v_pat29216-Ta-69" target="qtXVRn9v_pat29216-Ta-67">
          <mxGeometry width="160" relative="1" as="geometry">
            <mxPoint x="230" y="3645" as="sourcePoint" />
            <mxPoint x="505" y="3405" as="targetPoint" />
          </mxGeometry>
        </mxCell>
        <mxCell id="qtXVRn9v_pat29216-Ta-136" value="&amp;lt;&amp;lt;extend&amp;gt;&amp;gt;" style="edgeStyle=none;html=1;endArrow=open;verticalAlign=bottom;dashed=1;labelBackgroundColor=none;rounded=0;exitX=0;exitY=0.5;exitDx=0;exitDy=0;entryX=0.99;entryY=0.437;entryDx=0;entryDy=0;entryPerimeter=0;" edge="1" parent="1" source="qtXVRn9v_pat29216-Ta-131" target="qtXVRn9v_pat29216-Ta-67">
          <mxGeometry width="160" relative="1" as="geometry">
            <mxPoint x="390" y="3595" as="sourcePoint" />
            <mxPoint x="225" y="3755" as="targetPoint" />
          </mxGeometry>
        </mxCell>
        <mxCell id="qtXVRn9v_pat29216-Ta-137" value="&amp;lt;&amp;lt;extend&amp;gt;&amp;gt;" style="edgeStyle=none;html=1;endArrow=open;verticalAlign=bottom;dashed=1;labelBackgroundColor=none;rounded=0;entryX=0.96;entryY=0.666;entryDx=0;entryDy=0;entryPerimeter=0;" edge="1" parent="1" source="qtXVRn9v_pat29216-Ta-54" target="qtXVRn9v_pat29216-Ta-67">
          <mxGeometry width="160" relative="1" as="geometry">
            <mxPoint x="390" y="3695" as="sourcePoint" />
            <mxPoint x="215" y="3738" as="targetPoint" />
          </mxGeometry>
        </mxCell>
        <mxCell id="qtXVRn9v_pat29216-Ta-138" value="&amp;lt;&amp;lt;extend&amp;gt;&amp;gt;" style="edgeStyle=none;html=1;endArrow=open;verticalAlign=bottom;dashed=1;labelBackgroundColor=none;rounded=0;entryX=0.9;entryY=0.829;entryDx=0;entryDy=0;entryPerimeter=0;" edge="1" parent="1" source="qtXVRn9v_pat29216-Ta-132" target="qtXVRn9v_pat29216-Ta-67">
          <mxGeometry width="160" relative="1" as="geometry">
            <mxPoint x="392" y="3776" as="sourcePoint" />
            <mxPoint x="225" y="3755" as="targetPoint" />
          </mxGeometry>
        </mxCell>
        <mxCell id="qtXVRn9v_pat29216-Ta-139" value="&amp;lt;&amp;lt;extend&amp;gt;&amp;gt;" style="edgeStyle=none;html=1;endArrow=open;verticalAlign=bottom;dashed=1;labelBackgroundColor=none;rounded=0;exitX=0.5;exitY=0;exitDx=0;exitDy=0;" edge="1" parent="1" source="qtXVRn9v_pat29216-Ta-63" target="qtXVRn9v_pat29216-Ta-67">
          <mxGeometry width="160" relative="1" as="geometry">
            <mxPoint x="354" y="3850" as="sourcePoint" />
            <mxPoint x="209" y="3778" as="targetPoint" />
          </mxGeometry>
        </mxCell>
        <mxCell id="qtXVRn9v_pat29216-Ta-140" value="&amp;lt;&amp;lt;extend&amp;gt;&amp;gt;" style="edgeStyle=none;html=1;endArrow=open;verticalAlign=bottom;dashed=1;labelBackgroundColor=none;rounded=0;" edge="1" parent="1" source="qtXVRn9v_pat29216-Ta-133" target="qtXVRn9v_pat29216-Ta-67">
          <mxGeometry width="160" relative="1" as="geometry">
            <mxPoint x="256" y="3930" as="sourcePoint" />
            <mxPoint x="190" y="3782" as="targetPoint" />
          </mxGeometry>
        </mxCell>
        <mxCell id="qtXVRn9v_pat29216-Ta-142" value="Ajouter un medicament" style="ellipse;whiteSpace=wrap;html=1;" vertex="1" parent="1">
          <mxGeometry x="620" y="3830" width="140" height="70" as="geometry" />
        </mxCell>
        <mxCell id="qtXVRn9v_pat29216-Ta-143" value="Suprimer un medicament" style="ellipse;whiteSpace=wrap;html=1;" vertex="1" parent="1">
          <mxGeometry x="500" y="3920" width="140" height="70" as="geometry" />
        </mxCell>
        <mxCell id="qtXVRn9v_pat29216-Ta-144" value="Modifier un medicament" style="ellipse;whiteSpace=wrap;html=1;" vertex="1" parent="1">
          <mxGeometry x="600" y="3710" width="140" height="70" as="geometry" />
        </mxCell>
        <mxCell id="qtXVRn9v_pat29216-Ta-145" value="&amp;lt;&amp;lt;include&amp;gt;&amp;gt;" style="edgeStyle=none;html=1;endArrow=open;verticalAlign=bottom;dashed=1;labelBackgroundColor=none;rounded=0;exitX=0.95;exitY=0.771;exitDx=0;exitDy=0;exitPerimeter=0;" edge="1" parent="1" source="qtXVRn9v_pat29216-Ta-54" target="qtXVRn9v_pat29216-Ta-142">
          <mxGeometry width="160" relative="1" as="geometry">
            <mxPoint x="230" y="3645" as="sourcePoint" />
            <mxPoint x="534" y="3433" as="targetPoint" />
          </mxGeometry>
        </mxCell>
        <mxCell id="qtXVRn9v_pat29216-Ta-146" value="&amp;lt;&amp;lt;extend&amp;gt;&amp;gt;" style="edgeStyle=none;html=1;endArrow=open;verticalAlign=bottom;dashed=1;labelBackgroundColor=none;rounded=0;" edge="1" parent="1" source="qtXVRn9v_pat29216-Ta-144" target="qtXVRn9v_pat29216-Ta-54">
          <mxGeometry width="160" relative="1" as="geometry">
            <mxPoint x="388" y="3799" as="sourcePoint" />
            <mxPoint x="225" y="3755" as="targetPoint" />
          </mxGeometry>
        </mxCell>
        <mxCell id="qtXVRn9v_pat29216-Ta-147" value="&amp;lt;&amp;lt;extend&amp;gt;&amp;gt;" style="edgeStyle=none;html=1;endArrow=open;verticalAlign=bottom;dashed=1;labelBackgroundColor=none;rounded=0;" edge="1" parent="1" source="qtXVRn9v_pat29216-Ta-143" target="qtXVRn9v_pat29216-Ta-54">
          <mxGeometry width="160" relative="1" as="geometry">
            <mxPoint x="592" y="3765" as="sourcePoint" />
            <mxPoint x="480" y="3830" as="targetPoint" />
          </mxGeometry>
        </mxCell>
        <mxCell id="qtXVRn9v_pat29216-Ta-148" value="&amp;lt;&amp;lt;include&amp;gt;&amp;gt;" style="edgeStyle=none;html=1;endArrow=open;verticalAlign=bottom;dashed=1;labelBackgroundColor=none;rounded=0;exitX=1;exitY=1;exitDx=0;exitDy=0;entryX=0;entryY=0.5;entryDx=0;entryDy=0;" edge="1" parent="1" source="qtXVRn9v_pat29216-Ta-132" target="qtXVRn9v_pat29216-Ta-143">
          <mxGeometry width="160" relative="1" as="geometry">
            <mxPoint x="230" y="3645" as="sourcePoint" />
            <mxPoint x="534" y="3433" as="targetPoint" />
          </mxGeometry>
        </mxCell>
        <mxCell id="qtXVRn9v_pat29216-Ta-150" value="&amp;lt;&amp;lt;include&amp;gt;&amp;gt;" style="edgeStyle=none;html=1;endArrow=open;verticalAlign=bottom;dashed=1;labelBackgroundColor=none;rounded=0;exitX=0.957;exitY=0.29;exitDx=0;exitDy=0;exitPerimeter=0;" edge="1" parent="1" source="qtXVRn9v_pat29216-Ta-52" target="qtXVRn9v_pat29216-Ta-132">
          <mxGeometry width="160" relative="1" as="geometry">
            <mxPoint x="-60" y="3900" as="sourcePoint" />
            <mxPoint x="355" y="3905" as="targetPoint" />
          </mxGeometry>
        </mxCell>
        <mxCell id="qtXVRn9v_pat29216-Ta-151" value="&amp;lt;&amp;lt;include&amp;gt;&amp;gt;" style="edgeStyle=none;html=1;endArrow=open;verticalAlign=bottom;dashed=1;labelBackgroundColor=none;rounded=0;entryX=0.5;entryY=1;entryDx=0;entryDy=0;" edge="1" parent="1" source="qtXVRn9v_pat29216-Ta-52" target="qtXVRn9v_pat29216-Ta-133">
          <mxGeometry width="160" relative="1" as="geometry">
            <mxPoint x="80" y="3950" as="sourcePoint" />
            <mxPoint x="247" y="3861" as="targetPoint" />
          </mxGeometry>
        </mxCell>
        <mxCell id="qtXVRn9v_pat29216-Ta-152" value="&amp;lt;&amp;lt;include&amp;gt;&amp;gt;" style="edgeStyle=none;html=1;endArrow=open;verticalAlign=bottom;dashed=1;labelBackgroundColor=none;rounded=0;entryX=0.107;entryY=0.714;entryDx=0;entryDy=0;entryPerimeter=0;exitX=1;exitY=0;exitDx=0;exitDy=0;" edge="1" parent="1" source="qtXVRn9v_pat29216-Ta-52" target="qtXVRn9v_pat29216-Ta-131">
          <mxGeometry x="-0.2008" y="-2" width="160" relative="1" as="geometry">
            <mxPoint x="80" y="3950" as="sourcePoint" />
            <mxPoint x="247" y="3861" as="targetPoint" />
            <mxPoint as="offset" />
          </mxGeometry>
        </mxCell>
      </root>
    </mxGraphModel>
  </diagram>
</mxfile>
